<?xml version="1.0" encoding="UTF-8" standalone="no"?>
<!-- Created with Inkscape (http://www.inkscape.org/) -->
<svg xmlns:dc="http://purl.org/dc/elements/1.1/" xmlns:cc="http://web.resource.org/cc/" xmlns:rdf="http://www.w3.org/1999/02/22-rdf-syntax-ns#" xmlns:svg="http://www.w3.org/2000/svg" xmlns="http://www.w3.org/2000/svg" xmlns:xlink="http://www.w3.org/1999/xlink" xmlns:sodipodi="http://sodipodi.sourceforge.net/DTD/sodipodi-0.dtd" xmlns:inkscape="http://www.inkscape.org/namespaces/inkscape" version="1.0" width="598.32001" height="276.37723" id="svg2" sodipodi:version="0.32" inkscape:version="0.45.1" sodipodi:docname="blue city.svg" inkscape:output_extension="org.inkscape.output.svg.inkscape" sodipodi:docbase="C:\Users\ryan\Pictures\Clip Art">
  <sodipodi:namedview inkscape:window-height="575" inkscape:window-width="765" inkscape:pageshadow="2" inkscape:pageopacity="0.0" guidetolerance="10.0" gridtolerance="10.0" objecttolerance="10.0" borderopacity="1.0" bordercolor="#666666" pagecolor="#ffffff" id="base" inkscape:zoom="0.35355339" inkscape:cx="646.87513" inkscape:cy="362.96103" inkscape:window-x="23" inkscape:window-y="23" inkscape:current-layer="svg2"/>
  <defs id="defs4">
    <linearGradient id="linearGradient3223">
      <stop style="stop-color:#8db1e5;stop-opacity:1;" offset="0" id="stop3225"/>
      <stop style="stop-color:#122b50;stop-opacity:1;" offset="1" id="stop3227"/>
    </linearGradient>
    <linearGradient id="linearGradient3127">
      <stop style="stop-color:black;stop-opacity:1" offset="0" id="stop3129"/>
      <stop style="stop-color:#ff8d00;stop-opacity:0" offset="1" id="stop3131"/>
    </linearGradient>
    <linearGradient x1="322" y1="547.46997" x2="322" y2="430.89001" id="linearGradient3133" xlink:href="#linearGradient3127" gradientUnits="userSpaceOnUse"/>
    <radialGradient inkscape:collect="always" xlink:href="#linearGradient3223" id="radialGradient3231" cx="1135.9636" cy="245.25226" fx="1135.9636" fy="245.25226" r="299.16" gradientTransform="matrix(0.1158169,-0.6169755,1.3234574,0.2484356,701.30435,758.87467)" gradientUnits="userSpaceOnUse"/>
    <radialGradient inkscape:collect="always" xlink:href="#linearGradient3223" id="radialGradient4231" gradientUnits="userSpaceOnUse" gradientTransform="matrix(0.1158169,-0.6169755,1.3234574,0.2484356,701.30435,758.87467)" cx="1135.9636" cy="245.25226" fx="1135.9636" fy="245.25226" r="299.16"/>
    <radialGradient inkscape:collect="always" xlink:href="#linearGradient3223" id="radialGradient4236" gradientUnits="userSpaceOnUse" gradientTransform="matrix(0.1158169,-0.6169755,1.3234574,0.2484356,701.30435,758.87467)" cx="1135.9636" cy="245.25226" fx="1135.9636" fy="245.25226" r="299.16"/>
    <clipPath clipPathUnits="userSpaceOnUse" id="clipPath4254">
      <path sodipodi:nodetypes="cccsssssssssssscccscccssscccscccsscccsssssssscccscccsssssssssssssssssssscccsssssssssssssssssscccsssssssssssssccsccccccc" style="fill:#172d49;fill-opacity:1" d="M 640.47651,206.04495 L 640.47651,163.35779 L 645.56234,160.93254 C 649.61775,158.99864 650.74331,157.51733 651.11771,153.62134 C 651.54165,149.20987 652.09075,148.69506 656.77227,148.31975 C 659.62402,148.09114 663.42006,147.16507 665.20791,146.26182 C 667.21395,145.24836 670.90083,145.03868 674.83722,145.71417 C 678.34549,146.31619 683.59034,146.9587 686.49242,147.14197 C 693.63581,147.59307 695.28951,148.88373 695.28951,154.00788 C 695.28951,157.60774 695.90149,158.36474 698.81169,158.36474 C 700.7489,158.36474 702.99181,157.53143 703.79594,156.51295 C 704.60007,155.49446 705.70288,147.00686 706.24664,137.6516 C 706.79039,128.29634 707.91413,119.96329 708.74383,119.1337 C 710.76914,117.10867 755.52274,117.52522 774.54614,119.74615 C 782.69402,120.6974 792.36036,121.80524 796.02691,122.20803 C 810.52329,123.80052 809.3598,122.01818 809.3598,142.63245 L 809.3598,160.91664 L 823.06305,161.71246 C 831.41409,162.19744 837.48956,161.91755 838.61809,160.99584 C 839.63657,160.16398 840.46988,156.89843 840.46988,153.73906 L 840.46988,147.99471 L 846.80669,147.99471 C 856.03201,147.99471 859.47181,144.99831 860.01883,136.48566 C 860.3964,130.60991 860.98496,129.4033 863.65939,129.02216 C 865.61802,128.74302 867.71446,129.80229 869.08994,131.76607 C 871.55587,135.28669 870.24511,135.30227 900.46789,131.39301 L 915.28221,129.47681 L 915.73232,121.6323 C 916.12333,114.81755 916.67077,113.60212 919.9027,112.37335 C 924.9089,110.47 933.46278,110.59126 942.57569,112.69477 L 950.09587,114.43064 L 950.09587,125.28695 C 950.09587,131.25792 950.69731,136.14325 951.43238,136.14325 C 953.59967,136.14325 956.0216,127.3752 956.0216,119.52905 C 956.0216,111.80449 957.19268,108.74749 963.17617,100.85257 L 966.906,95.931266 L 971.83382,103.7468 C 975.14347,108.99589 976.76166,113.38041 976.76166,117.09892 C 976.76166,123.80517 978.41772,125.07891 983.79244,122.50658 C 987.36196,120.79822 987.99691,119.44403 988.86761,111.68248 C 989.41498,106.80317 990.02191,92.276463 990.21637,79.400893 C 990.55347,57.080133 990.75893,55.632463 994.63161,48.290813 C 998.83854,40.315583 1001.7152,38.727393 1008.7541,40.494033 C 1010.9668,41.049393 1013.1076,43.321343 1014.4535,46.542543 C 1015.6445,49.392773 1017.6723,51.701603 1018.9848,51.701603 C 1020.2914,51.701603 1026.0683,52.772383 1031.8224,54.081123 L 1042.2843,56.460633 L 1041.205,93.147316 C 1040.6058,113.51181 1040.695,130.17028 1041.4055,130.58984 C 1042.1094,131.00556 1049.8518,131.82264 1058.6108,132.4056 L 1074.5362,133.46551 L 1074.5362,126.68989 C 1074.5362,120.58044 1079.926,107.51829 1085.0622,101.18013 C 1085.789,100.28314 1086.8065,96.465286 1087.3231,92.696023 C 1088.4686,84.339013 1090.1771,84.864933 1091.1941,93.887596 C 1091.6094,97.572406 1092.8437,101.66503 1093.937,102.98231 C 1097.6074,107.40496 1100.0762,116.05945 1101.0766,128.01093 C 1101.623,134.53778 1102.5807,140.70424 1103.2048,141.71418 C 1104.9068,144.46797 1122.5597,144.15404 1124.9049,141.32827 C 1128.0648,137.52082 1134.3266,138.58227 1137.1776,143.40863 C 1138.5755,145.77501 1139.7192,149.19156 1139.7192,151.00097 C 1139.7192,153.89653 1140.2749,154.17966 1144.3556,153.36353 C 1146.9056,152.85353 1153.247,153.22029 1158.4477,154.17854 C 1167.5169,155.84961 1168.0331,155.78168 1171.0745,152.51713 C 1173.9624,149.41735 1175.0865,149.19961 1183.6652,150.07851 C 1195.6201,151.30333 1198.9765,149.69849 1198.9765,142.75758 C 1198.9765,138.357 1199.4734,137.62469 1202.4591,137.62469 C 1207.0056,137.62469 1215.7155,134.61637 1217.1014,132.56737 C 1217.7,131.68235 1218.2,127.95834 1218.2125,124.29179 C 1218.2323,118.48111 1218.8907,117.10239 1223.341,113.55141 C 1228.6009,109.35459 1239.2503,107.80843 1241.1973,110.9589 C 1242.8648,113.65699 1247.0802,112.40542 1250.0859,108.31985 C 1252.8787,104.52365 1253.0913,101.32205 1253.7895,52.547413 L 1254.5302,0.80239039 L 1258.9745,-0.39031061 C 1261.4189,-1.0463036 1264.4348,-1.2631556 1265.6765,-0.87220561 C 1266.9182,-0.48127061 1274.4795,-0.78063861 1282.4792,-1.5374876 C 1290.4789,-2.2943516 1297.8723,-2.5881046 1298.909,-2.1902806 C 1301.1659,-1.3242946 1304.1582,4.8431453 1304.1582,8.6283833 C 1304.1582,10.119844 1305.2217,12.222737 1306.5214,13.301457 C 1308.5481,14.98349 1308.7638,18.015403 1308.0363,34.593263 C 1307.5696,45.225033 1307.2171,54.923713 1307.2529,56.145903 C 1308.2843,91.312893 1310.1693,109.34487 1313.2262,113.29124 C 1313.9044,114.16663 1314.9035,119.6641 1315.4467,125.50781 C 1316.5008,136.85003 1319.3615,141.91438 1321.2893,135.85089 C 1322.2997,132.67291 1322.4423,132.63455 1323.3755,135.28996 C 1323.9264,136.85763 1324.5423,144.82406 1324.7442,152.99314 C 1324.9461,161.16222 1325.7554,169.04985 1326.5429,170.52122 C 1327.8579,172.97822 1328.3266,173.01448 1332.2887,170.96559 C 1337.7532,168.1397 1339.5877,168.16249 1342.8297,171.09648 C 1344.6631,172.75571 1346.7909,173.16134 1349.983,172.4602 C 1353.5902,171.66796 1354.5269,170.69134 1354.5269,167.72298 C 1354.5269,159.31644 1357.8178,120.27408 1358.8743,116.14392 C 1359.5715,113.41915 1360.4565,125.03343 1361.1618,146.16215 L 1362.3123,180.6247 L 1365.8375,181.50948 C 1367.938,182.03668 1370.824,181.43683 1372.9783,180.02528 C 1375.0139,178.69153 1376.966,178.25832 1377.4452,179.03395 C 1377.9135,179.79166 1381.7767,180.17098 1386.0299,179.87687 C 1392.3362,179.44081 1393.765,178.84193 1393.7739,176.63096 C 1393.7817,174.68055 1395.0851,173.79329 1398.4188,173.46904 C 1402.2911,173.09238 1403.2038,173.62077 1403.9727,176.68421 C 1404.7999,179.97978 1405.8959,180.45752 1414.8231,181.41354 C 1423.9483,182.39077 1424.9241,182.22014 1426.8568,179.30947 C 1429.756,174.94294 1435.11,175.21994 1437.2175,179.84551 C 1438.1456,181.88248 1439.4749,183.54909 1440.1713,183.54909 C 1442.6167,183.54909 1443.2942,181.65118 1441.8271,178.91001 C 1440.5128,176.45421 1440.9252,176.14193 1445.483,176.14193 C 1449.2363,176.14193 1450.8619,176.90326 1451.5173,178.96794 C 1452.4994,182.06228 1456.2012,184.06046 1458.4159,182.6917 L 1492.3001,182.04498 C 1494.4944,183.4854 1497.0142,183.78785 1510.0773,184.17868 C 1513.7438,184.28838 1519.577,184.52492 1523.0398,184.70434 L 1529.3359,185.03052 L 1529.3359,216.88132 L 1529.3359,248.73211 L 1084.9062,248.73211 L 640.47651,248.73211 L 640.47651,206.04495 z " id="path4256"/>
    </clipPath>
    <clipPath clipPathUnits="userSpaceOnUse" id="clipPath4299">
      <rect id="rect4301" style="fill:#4e9a06" y="-65.769554" x="726.29352" ry="73.861801" rx="68" height="276.51471" width="598.32001"/>
    </clipPath>
    <radialGradient inkscape:collect="always" xlink:href="#linearGradient3223" id="radialGradient4303" gradientUnits="userSpaceOnUse" gradientTransform="matrix(0.1158169,-0.6169755,1.3234574,0.2484356,701.30435,758.87467)" cx="1135.9636" cy="245.25226" fx="1135.9636" fy="245.25226" r="299.16"/>
  </defs>
  <g id="g4291" clip-path="url(#clipPath4299)" transform="translate(-726.29352,65.632063)">
    <path d="M 793.89929,-65.632063 C 769.15929,-65.632063 747.63929,-52.102064 736.05929,-31.872063 L 1146.5193,161.39794 L 830.37928,-65.632063 L 793.89929,-65.632063 z M 1146.5193,161.39794 L 960.70928,-65.632063 L 879.05928,-65.632063 L 1146.5193,161.39794 z M 1146.5193,161.39794 L 1043.4593,-65.632063 L 989.33928,-65.632063 L 1146.5193,161.39794 z M 1146.5193,161.39794 L 1107.9493,-65.632063 L 1064.5593,-65.632063 L 1146.5193,161.39794 z M 1146.5193,161.39794 L 1166.7493,-65.632063 L 1126.2793,-65.632063 L 1146.5193,161.39794 z M 1146.5193,161.39794 L 1228.4693,-65.632063 L 1185.0793,-65.632063 L 1146.5193,161.39794 z M 1146.5193,161.39794 L 1295.7293,-54.112064 C 1285.0693,-61.402063 1272.2493,-65.632063 1258.3893,-65.632063 L 1249.5693,-65.632063 L 1146.5193,161.39794 z M 1146.5193,161.39794 L 1325.3093,9.627937 L 1325.3093,2.5179373 C 1325.3093,-13.422063 1319.9793,-28.062063 1311.0393,-39.642064 L 1146.5193,161.39794 z M 1146.5193,161.39794 L 1325.3093,77.207938 L 1325.3093,32.987937 L 1146.5193,161.39794 z M 1146.5193,161.39794 L 1324.6993,130.01794 C 1325.0993,126.98794 1325.3093,123.91794 1325.3093,120.77794 L 1325.3093,94.437938 L 1146.5193,161.39794 z M 1146.5193,161.39794 L 727.04929,122.59794 C 727.98929,159.49794 757.42929,188.92794 793.89929,188.92794 L 848.82928,188.92794 L 1146.5193,161.39794 z M 1146.5193,161.39794 L 726.98929,4.2979373 L 726.98929,87.517938 L 1146.5193,161.39794 z " style="fill:url(#radialGradient4303);fill-opacity:1" id="path2158"/>
    <path sodipodi:nodetypes="cccsssssssssssscccscccssscccscccsscccsssssssscccscccsssssssssssssssssssscccsssssssssssssssssscccsssssssssssssccsccccccc" style="fill:#172d49;fill-opacity:1" d="M 640.47651,206.04495 L 640.47651,163.35779 L 645.56234,160.93254 C 649.61775,158.99864 650.74331,157.51733 651.11771,153.62134 C 651.54165,149.20987 652.09075,148.69506 656.77227,148.31975 C 659.62402,148.09114 663.42006,147.16507 665.20791,146.26182 C 667.21395,145.24836 670.90083,145.03868 674.83722,145.71417 C 678.34549,146.31619 683.59034,146.9587 686.49242,147.14197 C 693.63581,147.59307 695.28951,148.88373 695.28951,154.00788 C 695.28951,157.60774 695.90149,158.36474 698.81169,158.36474 C 700.7489,158.36474 702.99181,157.53143 703.79594,156.51295 C 704.60007,155.49446 705.70288,147.00686 706.24664,137.6516 C 706.79039,128.29634 707.91413,119.96329 708.74383,119.1337 C 710.76914,117.10867 755.52274,117.52522 774.54614,119.74615 C 782.69402,120.6974 792.36036,121.80524 796.02691,122.20803 C 810.52329,123.80052 809.3598,122.01818 809.3598,142.63245 L 809.3598,160.91664 L 823.06305,161.71246 C 831.41409,162.19744 837.48956,161.91755 838.61809,160.99584 C 839.63657,160.16398 840.46988,156.89843 840.46988,153.73906 L 840.46988,147.99471 L 846.80669,147.99471 C 856.03201,147.99471 859.47181,144.99831 860.01883,136.48566 C 860.3964,130.60991 860.98496,129.4033 863.65939,129.02216 C 865.61802,128.74302 867.71446,129.80229 869.08994,131.76607 C 871.55587,135.28669 870.24511,135.30227 900.46789,131.39301 L 915.28221,129.47681 L 915.73232,121.6323 C 916.12333,114.81755 916.67077,113.60212 919.9027,112.37335 C 924.9089,110.47 933.46278,110.59126 942.57569,112.69477 L 950.09587,114.43064 L 950.09587,125.28695 C 950.09587,131.25792 950.69731,136.14325 951.43238,136.14325 C 953.59967,136.14325 956.0216,127.3752 956.0216,119.52905 C 956.0216,111.80449 957.19268,108.74749 963.17617,100.85257 L 966.906,95.931266 L 971.83382,103.7468 C 975.14347,108.99589 976.76166,113.38041 976.76166,117.09892 C 976.76166,123.80517 978.41772,125.07891 983.79244,122.50658 C 987.36196,120.79822 987.99691,119.44403 988.86761,111.68248 C 989.41498,106.80317 990.02191,92.276463 990.21637,79.400893 C 990.55347,57.080133 990.75893,55.632463 994.63161,48.290813 C 998.83854,40.315583 1001.7152,38.727393 1008.7541,40.494033 C 1010.9668,41.049393 1013.1076,43.321343 1014.4535,46.542543 C 1015.6445,49.392773 1017.6723,51.701603 1018.9848,51.701603 C 1020.2914,51.701603 1026.0683,52.772383 1031.8224,54.081123 L 1042.2843,56.460633 L 1041.205,93.147316 C 1040.6058,113.51181 1040.695,130.17028 1041.4055,130.58984 C 1042.1094,131.00556 1049.8518,131.82264 1058.6108,132.4056 L 1074.5362,133.46551 L 1074.5362,126.68989 C 1074.5362,120.58044 1079.926,107.51829 1085.0622,101.18013 C 1085.789,100.28314 1086.8065,96.465286 1087.3231,92.696023 C 1088.4686,84.339013 1090.1771,84.864933 1091.1941,93.887596 C 1091.6094,97.572406 1092.8437,101.66503 1093.937,102.98231 C 1097.6074,107.40496 1100.0762,116.05945 1101.0766,128.01093 C 1101.623,134.53778 1102.5807,140.70424 1103.2048,141.71418 C 1104.9068,144.46797 1122.5597,144.15404 1124.9049,141.32827 C 1128.0648,137.52082 1134.3266,138.58227 1137.1776,143.40863 C 1138.5755,145.77501 1139.7192,149.19156 1139.7192,151.00097 C 1139.7192,153.89653 1140.2749,154.17966 1144.3556,153.36353 C 1146.9056,152.85353 1153.247,153.22029 1158.4477,154.17854 C 1167.5169,155.84961 1168.0331,155.78168 1171.0745,152.51713 C 1173.9624,149.41735 1175.0865,149.19961 1183.6652,150.07851 C 1195.6201,151.30333 1198.9765,149.69849 1198.9765,142.75758 C 1198.9765,138.357 1199.4734,137.62469 1202.4591,137.62469 C 1207.0056,137.62469 1215.7155,134.61637 1217.1014,132.56737 C 1217.7,131.68235 1218.2,127.95834 1218.2125,124.29179 C 1218.2323,118.48111 1218.8907,117.10239 1223.341,113.55141 C 1228.6009,109.35459 1239.2503,107.80843 1241.1973,110.9589 C 1242.8648,113.65699 1247.0802,112.40542 1250.0859,108.31985 C 1252.8787,104.52365 1253.0913,101.32205 1253.7895,52.547413 L 1254.5302,0.80239039 L 1258.9745,-0.39031061 C 1261.4189,-1.0463036 1264.4348,-1.2631556 1265.6765,-0.87220561 C 1266.9182,-0.48127061 1274.4795,-0.78063861 1282.4792,-1.5374876 C 1290.4789,-2.2943516 1297.8723,-2.5881046 1298.909,-2.1902806 C 1301.1659,-1.3242946 1304.1582,4.8431453 1304.1582,8.6283833 C 1304.1582,10.119844 1305.2217,12.222737 1306.5214,13.301457 C 1308.5481,14.98349 1308.7638,18.015403 1308.0363,34.593263 C 1307.5696,45.225033 1307.2171,54.923713 1307.2529,56.145903 C 1308.2843,91.312893 1310.1693,109.34487 1313.2262,113.29124 C 1313.9044,114.16663 1314.9035,119.6641 1315.4467,125.50781 C 1316.5008,136.85003 1319.3615,141.91438 1321.2893,135.85089 C 1322.2997,132.67291 1322.4423,132.63455 1323.3755,135.28996 C 1323.9264,136.85763 1324.5423,144.82406 1324.7442,152.99314 C 1324.9461,161.16222 1325.7554,169.04985 1326.5429,170.52122 C 1327.8579,172.97822 1328.3266,173.01448 1332.2887,170.96559 C 1337.7532,168.1397 1339.5877,168.16249 1342.8297,171.09648 C 1344.6631,172.75571 1346.7909,173.16134 1349.983,172.4602 C 1353.5902,171.66796 1354.5269,170.69134 1354.5269,167.72298 C 1354.5269,159.31644 1357.8178,120.27408 1358.8743,116.14392 C 1359.5715,113.41915 1360.4565,125.03343 1361.1618,146.16215 L 1362.3123,180.6247 L 1365.8375,181.50948 C 1367.938,182.03668 1370.824,181.43683 1372.9783,180.02528 C 1375.0139,178.69153 1376.966,178.25832 1377.4452,179.03395 C 1377.9135,179.79166 1381.7767,180.17098 1386.0299,179.87687 C 1392.3362,179.44081 1393.765,178.84193 1393.7739,176.63096 C 1393.7817,174.68055 1395.0851,173.79329 1398.4188,173.46904 C 1402.2911,173.09238 1403.2038,173.62077 1403.9727,176.68421 C 1404.7999,179.97978 1405.8959,180.45752 1414.8231,181.41354 C 1423.9483,182.39077 1424.9241,182.22014 1426.8568,179.30947 C 1429.756,174.94294 1435.11,175.21994 1437.2175,179.84551 C 1438.1456,181.88248 1439.4749,183.54909 1440.1713,183.54909 C 1442.6167,183.54909 1443.2942,181.65118 1441.8271,178.91001 C 1440.5128,176.45421 1440.9252,176.14193 1445.483,176.14193 C 1449.2363,176.14193 1450.8619,176.90326 1451.5173,178.96794 C 1452.4994,182.06228 1456.2012,184.06046 1458.4159,182.6917 L 1492.3001,182.04498 C 1494.4944,183.4854 1497.0142,183.78785 1510.0773,184.17868 C 1513.7438,184.28838 1519.577,184.52492 1523.0398,184.70434 L 1529.3359,185.03052 L 1529.3359,216.88132 L 1529.3359,248.73211 L 1084.9062,248.73211 L 640.47651,248.73211 L 640.47651,206.04495 z " id="path2227"/>
    <g clip-path="url(#clipPath4254)" id="g4242">
      <path sodipodi:nodetypes="ccccccccccccccccccccccccccccccccccccccccc" d="M 793.89929,375.13484 C 769.15929,375.13484 747.63929,361.60484 736.05929,341.37484 L 1146.5193,148.10483 L 830.37928,375.13484 L 793.89929,375.13484 z M 1146.5193,148.10483 L 960.70928,375.13484 L 879.05928,375.13484 L 1146.5193,148.10483 z M 1146.5193,148.10483 L 1043.4593,375.13484 L 989.33928,375.13484 L 1146.5193,148.10483 z M 1146.5193,148.10483 L 1064.5593,375.13484 L 1146.5193,148.10483 z M 1146.5193,148.10483 L 1146.5193,148.10483 z M 1146.5193,148.10483 L 1146.5193,148.10483 z M 1146.5193,148.10483 L 1146.5193,148.10483 z M 1146.5193,148.10483 L 1146.5193,148.10483 z M 1146.5193,148.10483 L 1325.3093,232.29484 L 1146.5193,148.10483 z M 1146.5193,148.10483 L 1324.6993,179.48483 C 1325.0993,182.51483 1325.3093,185.58483 1325.3093,188.72483 L 1325.3093,215.06484 L 1146.5193,148.10483 z M 1146.5193,148.10483 L 727.04929,186.90483 C 630.0822,89.23491 757.42929,120.57483 793.89929,120.57483 L 848.82928,120.57483 L 1146.5193,148.10483 z M 1146.5193,148.10483 L 726.98929,305.20484 L 726.98929,221.98484 L 1146.5193,148.10483 z " style="opacity:0.05464484;fill:#ffffff;fill-opacity:1" id="path4215"/>
      <path id="path4238" style="opacity:0.05464484;fill:#ffffff;fill-opacity:1" d="M 870.20463,-166.46224 C 846.30762,-172.86542 822.01908,-165.36623 805.59775,-148.82268 L 1152.0497,144.09668 L 905.44159,-157.02052 L 870.20463,-166.46224 z M 1152.0497,144.09668 L 1031.3307,-123.28864 L 952.46286,-144.42121 L 1152.0497,144.09668 z M 1152.0497,144.09668 L 1111.2611,-101.87136 L 1058.9851,-115.87865 L 1152.0497,144.09668 z M 1152.0497,144.09668 L 1173.5536,-85.180116 L 1131.6421,-96.410274 L 1152.0497,144.09668 z M 1152.0497,144.09668 L 1230.3501,-69.961556 L 1191.259,-80.435963 L 1152.0497,144.09668 z M 1152.0497,144.09668 L 1289.967,-53.987244 L 1248.0555,-65.217403 L 1152.0497,144.09668 z M 1152.0497,144.09668 L 1351.9536,-25.45161 C 1343.5436,-35.25222 1332.2552,-42.656147 1318.8675,-46.243378 L 1310.348,-48.526162 L 1152.0497,144.09668 z M 1152.0497,144.09668 L 1364.0285,43.772369 L 1365.8687,36.904637 C 1369.9943,21.507779 1368.635,5.9871203 1362.9968,-7.5121437 L 1152.0497,144.09668 z M 1152.0497,144.09668 L 1346.5375,109.04964 L 1357.9825,66.3364 L 1152.0497,144.09668 z M 1152.0497,144.09668 L 1332.2801,159.90231 C 1333.4507,157.07908 1334.4481,154.16804 1335.2608,151.13503 L 1342.0781,125.69254 L 1152.0497,144.09668 z M 1152.0497,144.09668 L 756.91497,-1.9480687 C 748.27252,33.937884 769.09233,69.98471 804.31965,79.42384 L 857.37794,93.64077 L 1152.0497,144.09668 z M 1152.0497,144.09668 L 787.47531,-116.23263 L 765.93639,-35.848281 L 1152.0497,144.09668 z "/>
    </g>
    <path d="M 1217.4227,112.56623 C 1217.3864,113.99461 1217.9432,114.68459 1218.9721,115.37457 C 1219.1537,117.45662 1220.6063,113.94619 1221.841,115.55614 C 1223.9352,117.46872 1221.4779,121.07599 1223.7415,122.63752 C 1223.5962,124.0538 1223.5841,124.27168 1224.722,123.0854 C 1226.9493,122.02017 1226.3925,125.42165 1225.6662,126.30531 C 1226.4893,127.09213 1226.804,127.47949 1227.7119,126.37794 C 1230.5687,126.12374 1228.1477,130.60255 1228.7287,132.09146 C 1229.915,131.462 1233.3407,131.15938 1231.9123,133.37458 C 1231.4402,134.82717 1230.4355,138.78548 1232.7354,136.66712 C 1234.2001,135.48084 1238.6063,137.50236 1236.3669,138.93074 C 1234.0428,139.17283 1233.4012,143.5306 1235.9553,143.70007 C 1236.5001,144.80162 1236.1006,146.43578 1237.7348,146.88367 C 1239.3326,147.13787 1241.5115,147.65838 1240.6036,149.87358 C 1240.8215,151.03565 1238.6911,152.28246 1239.2479,152.89981 C 1242.5888,153.3719 1245.9419,151.50774 1249.3797,151.68932 C 1252.3817,151.653 1254.8995,150.69671 1257.4416,149.71622 C 1259.3784,149.95831 1258.7368,148.04574 1257.1389,148.27573 C 1255.1779,146.9684 1257.8047,145.05582 1259.3662,145.70949 C 1260.8067,145.96369 1263.2519,144.71689 1261.6783,143.21588 C 1260.9036,141.86013 1262.8404,139.3302 1260.5041,139.5844 C 1258.3857,139.26967 1259.0878,136.27976 1261.2667,137.16342 C 1262.9614,137.52657 1263.5788,136.44923 1263.833,135.154 C 1264.5229,134.25824 1266.2176,135.49294 1265.2734,133.60457 C 1264.6319,132.16409 1265.4913,130.74781 1266.4113,130.27572 C 1266.5081,128 1267.0771,124.75588 1269.4375,124.29589 C 1271.0112,122.8312 1268.6386,121.45124 1269.7402,119.79287 C 1270.6359,117.88029 1271.5922,114.26092 1274.1221,114.34565 C 1275.1995,115.58035 1275.4053,115.85877 1276.2405,114.34565 C 1277.572,112.78412 1278.952,115.05984 1278.2136,116.19771 C 1279.8236,116.06455 1281.954,115.83456 1283.2371,116.35507 C 1283.8666,114.73301 1285.5855,114.59986 1286.4934,115.85877 C 1289.338,115.72561 1287.1954,120.33759 1288.9143,121.6086 C 1289.5801,123.19435 1289.5801,125.16745 1289.2896,126.75319 C 1291.1538,124.53799 1292.3521,128.36315 1292.1343,129.88836 C 1291.5895,132.67249 1294.7973,133.73773 1294.8215,136.09819 C 1294.7005,136.8608 1296.3589,137.67182 1295.4631,138.89442 C 1295.3421,140.49227 1295.5842,143.47008 1297.9204,142.11433 C 1299.6756,140.98857 1303.6581,142.98588 1303.5976,139.95965 C 1304.6386,138.1076 1305.7523,135.19032 1307.9796,134.74244 C 1308.9722,135.75925 1307.8585,137.76866 1309.868,137.6113 C 1311.7563,138.3497 1312.7368,140.40754 1313.6205,141.73908 C 1315.2062,141.90855 1314.1047,144.06322 1316.1504,144.12374 C 1317.7361,145.2495 1320.254,145.27371 1320.3145,142.86483 C 1320.3508,141.33961 1322.445,141.13383 1322.8081,140.5649 C 1321.8639,139.69335 1320.6534,137.46604 1322.9655,137.80498 C 1323.9097,137.90182 1327.0206,138.55548 1324.6965,137.76866 C 1323.3528,136.72764 1326.8027,136.75185 1325.338,135.42031 C 1323.8249,133.49563 1326.5727,132.96301 1327.2748,132.09146 C 1326.2822,130.82044 1327.3717,129.34364 1328.5579,129.85205 C 1328.9453,127.90316 1331.6931,130.55413 1332.4194,128.42367 C 1333.5452,127.47949 1333.5815,123.27908 1335.5909,125.27639 C 1336.7288,126.54741 1336.8498,129.60995 1338.4356,129.90047 C 1340.6871,127.91526 1341.6918,131.55884 1341.1955,133.33827 C 1341.3892,135.74714 1339.8518,137.46604 1340.8565,139.69335 C 1341.837,168.6483 1341.1834,197.65168 1341.377,226.61874 C 1098.8793,226.61874 856.38161,226.61874 613.87171,226.61874 C 613.87171,200.19371 613.87171,173.75658 613.87171,147.33155 C 615.20331,147.52523 613.24231,145.31003 613.95651,144.19637 C 614.57381,141.14594 612.64911,136.55817 616.60741,135.45663 C 621.27991,132.64829 625.83141,129.4889 630.56441,126.87424 C 647.81391,128.16947 665.16021,128.45998 682.34921,130.34835 C 688.18381,131.74042 693.51001,135.8803 699.85291,134.37929 C 704.10181,134.4156 709.28271,131.86147 713.05941,134.39139 C 714.02781,135.45663 712.76891,136.80027 714.46361,137.115 C 716.60611,139.0881 718.03451,142.23538 720.92761,138.91863 C 724.77701,137.16342 728.13001,133.14459 732.71781,134.60928 C 746.06951,135.384 759.46961,136.95763 772.83351,136.1345 C 780.06011,135.58978 787.57731,133.65299 794.53761,133.30195 C 796.01441,134.99664 797.95121,137.24815 798.32641,139.16073 C 803.60421,144.07533 808.70031,150.26094 812.54971,156.37392 C 815.14011,155.64762 816.75011,160.97379 813.30021,160.46538 C 811.31501,160.90116 812.67071,164.26632 812.62231,165.75523 C 812.87651,169.39881 816.04801,172.48556 815.98751,176.00809 C 814.74071,176.44387 813.16701,176.78281 812.92491,178.5017 C 812.08971,180.64427 811.79921,183.64629 812.92491,185.61939 C 814.59541,184.05786 816.94381,186.82989 815.11591,188.07669 C 816.38701,189.12982 815.69701,185.70413 816.71381,185.08678 C 817.48851,183.31946 818.89271,184.4089 819.58261,185.46203 C 820.74471,186.05517 818.66271,183.44051 821.39841,184.09417 C 823.05681,183.87629 825.85301,183.97313 826.88191,183.04105 C 825.70771,182.58106 823.54101,184.29996 823.48041,182.13318 C 821.76151,180.57164 824.49721,177.72699 825.33251,180.13587 C 824.99351,181.57635 828.03191,180.65638 827.03931,179.14326 C 826.84561,175.39074 827.08771,170.41562 826.61561,167.34097 C 825.17511,168.24884 820.62371,167.42571 822.57261,165.1863 C 823.91621,164.39948 825.84091,165.28314 826.77301,166.36047 C 827.99561,162.02691 824.83621,163.28583 821.96731,163.2253 C 819.72791,163.37056 820.50261,160.64695 822.37891,160.98589 C 824.01301,160.45328 827.48721,161.88166 826.73671,158.98858 C 827.76561,155.55078 822.01571,159.2791 822.46361,156.10761 C 825.80461,153.46874 830.85231,154.87291 834.75011,155.27237 C 833.07961,156.45865 828.08031,156.71286 828.92761,159.66646 C 829.82341,160.65906 833.44281,160.00539 832.11121,161.89376 C 828.96401,162.11165 829.58131,165.67049 829.53291,167.94622 C 830.38021,170.81508 827.54771,176.29861 831.50601,176.95227 C 832.86171,176.89175 835.01641,180.59585 834.53221,177.71488 C 834.54431,175.70547 832.63171,174.38603 833.50331,172.07399 C 835.46431,169.74985 833.70911,165.85207 835.44011,163.26162 C 837.74001,163.7095 836.44481,167.54676 837.01371,169.31407 C 837.31631,173.5629 836.69901,178.32013 838.72051,182.09686 C 837.94581,182.99263 839.74941,185.46203 840.16101,183.23473 C 841.74671,172.63082 839.87051,161.44588 841.60151,150.81776 C 843.32041,149.44991 843.30831,152.41561 844.09511,152.93612 C 845.70511,153.03296 845.19661,154.24345 844.16771,154.78817 C 843.22351,163.62476 843.51411,172.64292 843.91351,181.52793 C 843.96191,183.06526 846.73401,182.00002 846.58871,183.94892 C 847.23031,185.34098 845.89871,187.83459 847.92031,187.88301 C 849.21551,188.52457 849.13071,190.96977 850.69231,188.94825 C 852.08431,188.05248 854.02111,187.01146 853.59751,185.23204 C 855.14691,185.18362 854.45691,183.6705 854.72321,182.20581 C 854.72321,179.82114 856.53901,173.51448 856.75681,178.99801 C 857.12001,180.81374 856.27261,183.98523 857.30161,185.28046 C 859.10521,184.3968 861.42931,185.43782 862.59141,186.03096 C 862.95461,184.50574 864.35871,185.19572 864.97611,186.03096 C 867.55441,187.07198 869.38231,183.69471 867.69971,182.02423 C 865.96871,182.4358 864.40711,180.59585 866.64661,180.17218 C 868.52281,177.9933 867.22761,174.04709 867.66341,171.31138 C 867.80861,160.98589 866.58601,150.51514 867.62711,140.26228 C 868.31701,138.42233 870.43541,139.81439 870.01171,141.47277 C 870.70171,152.41561 869.99961,163.64897 871.82751,174.42235 C 873.35271,174.44656 873.15901,176.43176 874.78111,176.2744 C 875.83421,176.91596 875.44681,179.13116 876.47571,177.2549 C 878.29151,175.85073 879.92571,179.17958 880.22831,180.65638 C 879.12671,183.35577 874.69631,180.9469 873.03801,182.4358 C 872.27531,186.50305 875.54371,185.46203 878.32781,185.03836 C 880.77301,185.25625 883.41191,184.03365 882.98821,181.26162 C 883.59341,174.34972 882.24981,166.97782 883.96871,160.30802 C 886.07491,159.49699 885.44551,163.66108 885.72391,164.99262 C 886.18391,171.37191 885.31231,177.98119 886.49861,184.21522 C 892.98691,184.28785 899.69301,184.19101 906.06011,183.07736 C 907.00431,182.33896 906.93171,178.94959 908.40851,180.69269 C 908.44481,181.86687 908.27531,184.34838 910.10311,183.04105 C 911.65261,182.15739 914.08571,180.85006 915.10251,183.11368 C 917.08771,185.1473 916.94241,181.41899 916.76081,180.69269 C 915.16301,182.76263 912.18521,178.17487 915.28401,178.42907 C 916.37351,178.46539 917.24501,180.9469 916.91821,178.53802 C 916.48241,172.11031 917.77771,165.29524 915.97401,159.09752 C 915.29621,157.75388 911.02311,154.25556 914.19461,154.96975 C 915.46561,155.99867 916.79721,157.87493 918.35871,156.5676 C 920.41651,158.16545 919.07291,162.19638 919.52081,164.65368 C 919.88391,169.08408 918.78241,174.24077 920.88861,178.2354 C 922.25651,178.70749 924.66541,180.2206 923.86641,177.59384 C 923.29751,176.29861 924.43541,172.81239 925.65801,175.17285 C 925.70641,176.32282 927.40111,178.55012 927.28001,176.15335 C 927.54631,174.3013 924.16911,173.39343 926.03321,171.61401 C 927.06211,170.57298 928.72051,169.6288 927.05001,168.4062 C 926.08161,166.29995 928.28471,164.64158 929.93101,164.50842 C 929.87051,163.28583 929.58001,159.2791 931.74671,160.61064 C 932.79991,162.35375 935.32981,158.89174 935.75351,161.32483 C 935.47501,162.52322 934.68821,164.91999 936.85504,163.7095 C 939.53024,163.32214 935.63241,162.17217 936.32244,160.53801 C 935.91081,159.07331 937.62974,158.98858 937.94444,158.45596 C 938.12604,156.09551 938.47714,152.18562 940.93444,151.38669 C 941.79384,152.05246 941.10384,155.12711 941.96334,152.70613 C 941.81804,150.35778 944.34794,147.54944 946.53894,149.48622 C 947.30154,150.51514 945.87324,152.10088 947.28944,152.66981 C 948.46364,155.95025 944.91694,158.02019 944.86854,160.98589 C 946.39374,162.13586 951.48984,162.31743 950.13414,165.22261 C 949.56524,166.20311 948.41524,168.80567 949.29894,169.24144 C 952.47034,168.16411 951.05414,173.52658 948.72994,173.35711 C 947.51944,175.30601 950.58204,175.71757 950.58204,177.71488 C 951.64724,175.88704 952.65194,177.73909 952.59144,179.14326 C 953.28144,178.09014 954.66134,178.29592 953.19664,177.41226 C 952.56724,174.90654 956.30764,175.89915 957.46974,175.51179 C 958.00234,173.98657 960.55644,174.96707 959.58804,172.60661 C 959.73334,168.73304 957.84494,164.55684 958.94654,160.87695 C 960.91964,159.50909 960.82274,163.61266 961.10124,164.84736 C 961.88804,168.33358 960.85914,173.15133 963.70374,175.70547 C 965.19264,176.37124 967.67414,176.18966 966.77844,173.96236 C 966.41524,172.65503 964.28474,172.0982 965.67684,170.48825 C 967.69834,167.02624 966.23364,162.53532 967.56524,158.83122 C 969.07834,162.59585 968.54574,167.1594 970.66404,170.59719 C 970.84564,171.95294 968.18254,174.51919 971.12404,174.33761 C 974.18664,175.08812 977.96334,173.13923 976.94654,169.54407 C 977.14024,167.43781 975.09444,166.27574 973.24244,166.32416 C 972.66134,163.85476 976.94654,166.02154 976.23234,163.40687 C 976.95864,160.93747 971.93514,162.88636 973.54504,160.68327 C 974.73134,159.83592 977.49124,158.5407 978.12074,160.50169 C 978.98014,159.72698 980.56594,159.23068 981.52224,160.16276 C 981.89744,158.56491 980.52954,155.00606 982.66004,154.63081 C 984.79054,157.64493 982.56324,162.20849 984.58474,165.14998 C 985.90414,164.7021 987.55044,165.07735 987.73204,166.62678 C 988.59144,161.60324 989.31774,166.10627 991.09714,168.06727 C 992.56184,169.58038 992.84034,168.11569 992.19874,166.6631 C 991.62984,164.58105 994.53494,164.31474 994.57134,166.32416 C 994.20814,168.29726 995.44284,167.70412 996.68964,167.83727 C 998.118,167.92201 997.86384,171.04508 998.8927,169.04777 C 1000.2606,168.51515 999.7885,170.45194 1001.1563,170.22194 C 1003.0447,170.8514 1003.7952,174.72497 1005.5867,171.73506 C 1007.463,168.66041 1008.8914,169.70143 1010.4287,172.14662 C 1011.7723,173.41764 1015.0528,174.01078 1014.6291,171.20244 C 1014.8833,169.02356 1015.1375,165.45261 1017.619,164.91999 C 1018.1879,166.05785 1018.3695,166.50573 1019.2774,164.9563 C 1020.1247,163.52792 1021.0326,159.64225 1023.3204,161.44588 C 1024.1435,162.01481 1025.1846,165.06525 1025.4872,162.58374 C 1025.0272,160.96168 1026.5282,158.03229 1028.2108,159.81171 C 1028.7797,161.62745 1030.7286,160.68327 1030.2444,158.98858 C 1030.196,156.99127 1032.5201,156.51918 1032.3628,154.44924 C 1032.4233,152.40351 1034.6627,152.97244 1035.0501,154.44924 C 1034.9532,152.12509 1035.4374,147.37997 1038.8752,148.88098 C 1040.691,149.28044 1041.6593,151.48353 1042.2767,152.54877 C 1043.5719,151.77405 1044.0319,154.19503 1045.0003,152.20983 C 1047.3002,150.23673 1048.2202,154.48555 1048.6681,156.03498 C 1048.7891,157.3181 1048.2444,157.86282 1049.8423,157.88703 C 1050.0965,157.64493 1050.2296,156.13182 1050.9438,156.03498 C 1049.6607,154.90922 1050.2175,151.8951 1052.0696,153.23875 C 1052.7474,154.34029 1055.2532,155.79288 1055.2895,153.54137 C 1055.1926,152.27035 1056.7058,151.78616 1057.5168,152.40351 C 1056.621,151.51985 1055.5316,149.83726 1057.6378,149.71622 C 1060.6762,150.26094 1057.4563,146.76262 1057.5652,145.33424 C 1057.1536,143.19167 1055.4832,136.69133 1058.2915,141.21857 C 1058.5699,141.75118 1061.4025,144.71689 1059.8651,142.82852 C 1058.2673,141.52119 1059.7804,137.92603 1061.5719,139.95965 C 1062.2861,140.98857 1062.8551,144.32953 1063.424,141.43645 C 1062.6614,140.17754 1063.5813,139.3302 1064.5618,139.35441 C 1065.5544,137.17552 1065.2518,132.10356 1066.5834,131.9341 C 1067.5033,134.07667 1067.6365,137.46604 1067.3944,139.28178 C 1067.9149,138.3497 1069.077,137.34499 1069.7427,139.01547 C 1070.348,139.94755 1070.9775,140.25017 1070.9169,138.97916 C 1071.4011,137.28447 1074.1368,136.65501 1073.7132,139.05179 C 1073.7011,141.59382 1076.2552,139.63282 1077.151,138.82179 C 1079.5719,138.78548 1077.7925,143.43376 1078.2525,143.47008 C 1079.6204,141.75118 1081.3877,143.55481 1080.2619,145.17687 C 1079.3904,147.2105 1077.9499,149.1836 1077.9499,151.26564 C 1076.5578,151.99194 1078.3372,154.25556 1076.4005,153.80768 C 1075.0447,152.94823 1074.851,157.85072 1076.7757,156.0713 C 1077.4052,154.94554 1079.6083,152.96033 1080.6735,154.78817 C 1081.3272,156.3376 1077.2236,158.2986 1080.5161,157.95966 C 1086.2296,158.18966 1092.5363,155.91393 1097.923,158.0444 C 1099.1698,158.90385 1099.1335,160.68327 1098.7945,162.05112 C 1100.2229,161.37325 1100.5255,162.4869 1100.6829,160.46538 C 1101.736,158.0444 1102.5955,161.10694 1103.4428,161.89376 C 1104.7623,162.4869 1103.9028,163.78213 1102.8013,163.79423 C 1101.7603,165.67049 1103.9754,166.02154 1103.4428,168.10358 C 1103.2249,169.73775 1103.3097,171.71085 1105.4159,171.39612 C 1106.4206,171.3598 1106.8806,173.91394 1107.5343,172.21925 C 1107.9095,165.46471 1106.4449,158.64964 1106.4691,151.94352 C 1108.3695,149.78884 1108.5632,154.49766 1108.6601,155.73236 C 1109.4953,161.86955 1109.4711,168.32147 1110.0642,174.33761 C 1111.3352,175.52389 1113.8652,175.91125 1114.3009,177.52121 C 1115.6446,176.66176 1116.0319,172.23136 1118.005,173.73237 C 1118.9492,174.26498 1121.1644,171.91663 1121.5276,174.22867 C 1122.6049,174.88233 1122.5444,172.41293 1123.537,172.26767 C 1122.2539,171.55348 1122.7865,169.67722 1121.2613,169.12039 C 1120.9102,166.6752 1122.9802,164.13317 1121.2613,161.82113 C 1121.4307,160.09013 1123.2223,158.94016 1123.0044,156.87022 C 1122.5807,154.70344 1123.9001,153.32348 1125.7643,153.95294 C 1127.4348,152.17351 1122.4112,150.98723 1124.7475,149.21991 C 1126.6722,149.41359 1130.0252,150.00673 1130.9815,147.7068 C 1130.2794,146.66578 1128.8753,145.29792 1130.3763,144.19637 C 1131.0178,142.0538 1130.691,139.42704 1131.4778,137.50236 C 1130.1463,136.70343 1128.5242,133.44721 1131.3205,133.87088 C 1133.8867,134.04035 1135.0851,131.72831 1135.7145,129.70679 C 1136.0898,128.72629 1139.1765,127.41896 1136.7314,127.55212 C 1135.3151,129.34364 1130.8726,128.02421 1132.3494,125.66375 C 1136.4893,123.33961 1140.4476,127.20107 1143.0501,130.04573 C 1143.1833,124.58641 1141.5249,118.70342 1142.9049,113.43778 C 1145.3864,111.96099 1145.7132,116.37928 1146.0158,117.97713 C 1146.5121,122.49226 1147.5652,126.93477 1149.1026,131.02623 C 1148.0858,131.87357 1147.3232,134.53665 1148.691,135.34768 C 1149.7926,135.12979 1153.1214,135.46873 1151.2572,136.96974 C 1148.7757,137.40552 1148.6426,139.47546 1149.4052,141.60592 C 1150.9304,145.46739 1150.8215,149.63148 1151.3057,153.74715 C 1151.1967,156.20445 1154.7314,158.5407 1152.5041,160.768 C 1155.615,161.10694 1159.1133,161.40956 1157.7697,157.24547 C 1158.2539,154.90922 1155.5666,153.44453 1156.8981,151.19302 C 1157.7092,149.71622 1155.9903,145.69738 1158.3749,146.04843 C 1159.0165,146.44789 1160.457,149.05045 1159.8033,146.84735 C 1159.1133,144.60794 1161.2438,143.17956 1160.6022,140.83121 C 1160.2028,139.28178 1160.8564,137.05447 1161.6191,136.43712 C 1160.687,135.27505 1161.8369,134.37929 1160.9412,133.10827 C 1160.8443,130.89307 1163.7979,131.26832 1164.6453,129.51311 C 1165.8437,128.60524 1166.4731,130.05783 1167.5626,129.33154 C 1169.6688,130.15467 1169.233,133.19301 1169.4509,134.43981 C 1170.722,133.65299 1172.8887,134.4035 1171.9082,136.1345 C 1173.9661,136.64291 1172.344,139.18494 1172.0656,140.44385 C 1173.2398,138.57969 1175.5881,138.99126 1177.2465,138.55548 C 1177.8881,137.1271 1179.6675,139.53598 1179.0622,137.46604 C 1178.3359,135.86819 1180.3211,135.69872 1180.6843,135.60188 C 1181.1927,133.13248 1184.8121,136.42502 1185.7563,134.28245 C 1188.7099,133.77404 1190.223,138.53127 1193.2492,138.07129 C 1194.1208,136.72764 1196.0212,136.66712 1197.1833,135.68662 C 1199.2169,135.96503 1200.3427,138.42233 1202.3642,138.14392 C 1203.1026,139.3302 1203.5505,142.0417 1205.0878,140.22596 C 1206.1894,139.98386 1203.5626,138.30128 1204.4826,136.96974 C 1205.0878,134.79086 1208.2835,133.79825 1207.2062,131.25622 C 1208.1019,129.64627 1211.8787,132.1883 1210.0871,130.04573 C 1209.3003,128.43577 1208.9856,125.5306 1210.9466,124.75588 C 1208.5861,121.93544 1211.3945,118.8971 1213.2223,116.83927 C 1213.0407,115.08405 1214.8202,114.82985 1215.7886,114.07935 C 1216.0306,113.4862 1216.7569,110.64155 1217.4227,112.56623 z M 1143.2438,133.87088 C 1141.7791,134.75454 1144.4785,136.03766 1143.5464,134.54876 C 1143.4375,134.68191 1143.4496,133.59247 1143.2438,133.87088 z M 792.91551,136.66712 C 792.40711,136.69133 792.41921,135.34768 792.91551,136.66712 z M 792.50401,136.96974 C 792.21341,137.3571 791.70501,135.44452 792.50401,136.96974 z M 792.98821,136.89711 L 792.98821,136.8608 L 792.98821,136.89711 z M 790.90611,138.48285 C 789.28401,140.18965 789.91351,139.88702 789.92561,138.67653 C 790.11931,139.60861 790.96661,137.99866 790.90611,138.48285 z M 792.23761,139.62072 C 791.76561,140.16544 791.41451,138.91863 792.23761,139.62072 z M 789.62301,140.0686 C 789.34461,140.44385 788.52141,138.94284 789.62301,140.0686 z M 792.23761,139.95965 C 790.63981,140.43175 792.41921,139.3423 792.23761,139.95965 z M 792.31031,140.10491 C 790.97871,140.94015 792.15291,139.56019 792.31031,140.10491 z M 792.38291,140.29859 C 791.01501,141.37593 792.40711,139.86281 792.38291,140.29859 z M 789.78031,140.44385 C 789.73191,140.02018 791.30561,140.37122 789.78031,140.44385 z M 789.32041,140.5649 C 789.36881,141.03699 787.92831,139.45125 789.32041,140.5649 z M 792.57661,140.60121 C 791.39031,141.76329 792.41921,140.12912 792.57661,140.60121 z M 789.13881,140.97647 C 788.86041,141.33961 787.91621,140.04439 789.13881,140.97647 z M 792.77031,140.83121 C 792.45551,142.62274 791.87451,140.0807 792.77031,140.83121 z M 792.64921,141.5454 C 792.75821,140.91594 793.62971,140.95226 792.64921,141.5454 z M 795.86911,141.13383 L 795.83281,141.09752 L 795.86911,141.13383 z M 789.01771,141.24277 C 788.40041,143.48218 788.03721,138.79758 789.01771,141.24277 z M 793.41181,141.40014 C 792.70971,142.90115 793.12131,141.00068 793.41181,141.40014 z M 787.77091,141.65434 C 789.04191,141.72697 785.18051,142.98588 787.20201,143.0222 C 789.68351,143.19167 787.16571,143.7606 785.68891,143.66376 C 785.95521,142.67115 786.01571,142.7922 786.75411,142.15064 C 786.87521,142.19906 787.32301,141.35172 787.77091,141.65434 z M 796.74071,141.70276 L 796.70441,141.65434 L 796.74071,141.70276 z M 797.15221,141.81171 L 796.81331,141.70276 L 797.15221,141.81171 z M 797.38221,141.88434 L 797.22491,141.84802 L 797.38221,141.88434 z M 797.68491,141.92065 C 797.56381,141.99328 797.10381,141.76329 797.68491,141.92065 z M 1197.4496,142.25959 C 1197.3649,143.04641 1197.6675,142.25959 1197.4496,142.25959 z M 794.62231,143.25219 C 793.96861,144.55952 790.77301,142.71957 793.71441,143.32482 C 795.46971,143.95428 793.15761,142.34432 794.62231,143.25219 z M 791.13611,143.85744 C 790.33721,143.04641 791.99551,143.04641 791.13611,143.85744 z M 799.34321,144.16006 L 798.93171,143.7727 L 799.34321,144.16006 z M 800.59001,144.499 C 799.93641,145.52791 798.93171,143.28851 800.59001,144.499 z M 1248.7744,154.1103 C 1245.9056,154.08609 1250.6507,154.66713 1249.1618,154.14661 L 1248.8229,154.1103 L 1248.7744,154.1103 z M 886.31701,157.20916 C 888.15701,159.18226 883.48451,160.91326 884.27131,158.15334 C 884.53761,157.47547 885.76021,156.20445 886.31701,157.20916 z M 1056.6573,157.28179 C 1056.0037,157.59652 1057.2868,157.94756 1056.6573,157.28179 z M 1102.8376,157.8144 C 1104.4839,157.57231 1104.8591,159.65435 1102.995,159.43646 C 1101.6876,159.92066 1098.3346,159.06121 1100.5377,157.92335 C 1101.2761,157.74177 1102.075,157.72967 1102.8376,157.8144 z M 1079.003,157.88703 C 1078.9425,157.83861 1078.9667,158.00808 1079.003,157.88703 z M 1246.4019,160.87695 C 1246.4503,160.91326 1246.535,160.74379 1246.4019,160.87695 z M 1246.4745,161.07063 L 1246.4745,161.10694 L 1246.4745,161.07063 z M 981.52224,161.59114 C 980.33594,162.95899 977.33384,160.58643 978.22964,163.26162 C 977.64864,165.71891 980.50534,163.92739 981.64324,164.16948 C 981.59484,163.35845 981.60694,162.2448 981.52224,161.59114 z M 1100.235,162.58374 C 1098.4435,164.9442 1098.5888,168.68462 1099.775,171.27507 C 1102.3897,171.94084 1098.9519,173.91394 1097.5477,173.55079 C 1095.0662,173.46606 1093.0689,176.2744 1090.2848,175.33022 C 1087.3796,175.19706 1092.2942,175.64494 1093.2747,175.33022 C 1095.1147,175.26969 1096.8457,174.59182 1097.9956,173.65974 C 1099.0366,173.87763 1098.4072,175.7781 1100.0414,175.20917 C 1102.4502,176.56492 1100.5982,173.10291 1101.2518,171.61401 C 1101.1671,169.81037 1101.7845,167.25624 1101.8571,165.91259 C 1100.465,165.86417 1100.5982,162.20849 1100.235,162.58374 z M 981.64324,165.37998 C 978.60494,166.14259 978.01174,171.29928 980.27534,172.64292 C 980.92904,171.29928 977.84224,168.33358 980.65064,168.1399 C 982.41794,169.33828 981.51014,166.00943 981.64324,165.37998 z M 831.08231,168.4062 C 832.71651,168.69672 834.62911,171.94084 831.91761,171.23875 C 830.44081,171.20244 828.57661,168.21253 831.08231,168.4062 z M 832.14761,173.92605 C 833.63651,175.17285 831.61491,178.45328 830.81601,175.85073 C 830.50131,175.00338 831.03391,173.11502 832.14761,173.92605 z M 1105.9849,174.7976 C 1104.1207,174.84602 1104.3507,175.2818 1105.9001,175.2939 C 1106.5417,176.18966 1106.9048,175.49968 1107.6432,175.10022 C 1107.1106,174.88233 1106.5538,174.82181 1105.9849,174.7976 z M 1101.1429,176.41966 C 1099.0003,178.11435 1095.2962,176.7707 1093.081,178.01751 C 1092.8752,179.66378 1092.1974,182.85947 1095.042,182.01213 C 1097.2572,181.64898 1099.6661,183.07736 1101.4818,182.85947 C 1101.5787,181.06795 1103.2128,177.52121 1101.1429,176.41966 z M 1105.7186,176.91596 C 1104.726,178.12645 1105.077,178.56223 1105.7186,176.91596 z M 969.15094,177.89646 C 967.43204,178.0054 961.04064,178.02961 965.90684,178.12645 C 966.98414,178.17487 973.27874,177.64225 969.15094,177.89646 z M 958.78914,178.01751 C 957.07024,177.17016 960.65334,181.01953 959.76964,179.17958 C 959.79384,178.46539 959.58804,177.96909 958.78914,178.01751 z M 948.87524,179.07063 C 948.86314,180.55954 949.69834,182.54475 949.22624,179.90587 C 949.26254,179.9664 948.93574,178.39276 948.87524,179.07063 z M 829.90811,178.96169 C 829.35131,179.99061 830.48921,181.15268 831.31231,180.31744 C 830.97341,179.77272 830.42871,179.28852 829.90811,178.96169 z M 904.05071,179.4822 C 906.27801,180.01482 905.20071,182.95631 903.26391,181.72161 C 902.17451,181.03163 902.64661,179.09484 904.05071,179.4822 z M 927.58261,179.60325 C 925.05271,180.08745 928.30891,181.57635 927.99421,179.67588 L 927.69161,179.60325 L 927.58261,179.60325 z M 923.00701,180.05113 C 921.02181,179.50641 919.24241,181.39478 920.73131,183.04105 C 924.12061,184.96573 924.98011,179.7243 923.00701,180.05113 z M 974.71924,180.35376 C 971.58404,180.7048 967.62574,180.19639 964.99894,181.90318 C 964.81744,183.24683 967.66204,181.11637 968.73944,181.49162 C 970.65194,180.99532 973.70244,181.28583 974.82814,181.98792 C 974.91294,180.39007 979.02854,181.85477 977.21284,180.4748 C 976.38974,180.35376 975.54234,180.42639 974.71924,180.35376 z M 820.68421,180.51112 C 822.51201,180.4506 822.70571,182.6779 820.82951,182.81105 C 819.75211,183.71892 816.67751,183.85208 817.92431,181.86687 C 818.49321,180.93479 819.57051,180.26902 820.68421,180.51112 z M 962.75954,181.41899 C 962.83224,183.44051 963.05004,181.63688 962.75954,181.41899 z M 963.02584,184.62679 L 963.02584,184.59048 L 963.02584,184.62679 z M 963.02584,184.62679 C 963.98214,185.00204 963.18324,187.43513 963.36484,187.39882 C 963.75214,188.3551 963.26794,187.96775 963.70374,188.94825 C 962.85644,189.88032 962.98954,187.93143 963.18324,187.88301 C 963.37694,187.1083 962.10594,185.40151 963.02584,184.62679 z M 963.02584,184.67521 C 962.90484,184.62679 963.08644,184.60258 963.02584,184.67521 z M 963.06214,184.78415 C 963.23164,184.86889 963.08644,184.66311 963.06214,184.78415 z M 962.98954,184.74784 C 963.05004,184.8931 963.05004,184.60258 962.98954,184.74784 z M 821.25311,185.80097 C 821.89471,186.06728 823.45621,187.6167 822.53621,186.26095 C 822.47571,185.97044 820.32101,185.48624 821.25311,185.80097 z M 888.04801,187.04777 C 886.80121,187.3504 884.84021,190.19505 887.26121,190.00137 C 892.59951,189.49297 898.54301,190.19505 903.44551,187.8467 C 903.45761,186.3699 897.56251,187.50776 895.35941,187.20514 C 892.90211,186.93883 890.75951,187.87091 888.54441,188.343 C 887.45491,188.30669 888.43541,186.73305 888.04801,187.04777 z M 880.53091,187.58039 C 882.15301,189.66244 877.85571,188.8393 877.61361,189.46876 C 878.99361,189.91664 882.00771,191.10292 883.06081,189.73507 C 883.59341,188.27037 881.45091,189.37192 881.43881,187.81038 C 881.18461,187.65302 880.85771,187.66512 880.53091,187.58039 z M 823.58941,188.41563 C 824.17041,190.074 823.44411,187.08409 823.58941,188.41563 z M 922.59541,192.34973 C 918.06821,192.2771 923.49121,192.88234 923.20071,192.38604 C 922.99491,192.38604 922.78911,192.34973 922.59541,192.34973 z M 917.40241,192.34973 C 915.80461,192.7734 917.75351,193.0276 917.40241,192.34973 z M 903.90551,192.42236 C 898.91831,192.56762 892.59951,192.93076 888.50801,193.2576 C 894.47581,193.29391 900.61301,193.74179 906.47171,192.65235 C 905.66061,192.37394 904.75281,192.5192 903.90551,192.42236 z M 823.78311,193.0276 C 823.38361,194.39546 821.12001,193.17286 821.05941,193.5239 C 822.06421,193.54811 825.94981,194.64966 823.78311,193.0276 z M 882.79451,193.36654 C 881.22091,193.17286 880.78511,194.16546 882.45561,194.27441 C 883.36341,194.48019 884.23501,193.40285 882.79451,193.36654 z M 825.67141,204.72095 C 825.16301,205.84671 827.78981,205.43514 825.97401,204.79358 C 825.86511,204.80568 825.79251,204.68464 825.67141,204.72095 z " style="fill:#204a87;fill-opacity:1" id="path3305"/>
  </g>
  <metadata>
    <rdf:RDF>
      <cc:Work>
        <dc:format>image/svg+xml</dc:format>
        <dc:type rdf:resource="http://purl.org/dc/dcmitype/StillImage"/>
        <cc:license rdf:resource="http://creativecommons.org/licenses/publicdomain/"/>
        <dc:publisher>
          <cc:Agent rdf:about="http://openclipart.org/">
            <dc:title>Open Clip Art Library</dc:title>
          </cc:Agent>
        </dc:publisher>
        <dc:title>blue city scene</dc:title>
        <dc:date>2007-07-31T04:38:33</dc:date>
        <dc:description/>
        <dc:source>http://openclipart.org/detail/4623/blue-city-scene-by-ryanlerch</dc:source>
        <dc:creator>
          <cc:Agent>
            <dc:title>ryanlerch</dc:title>
          </cc:Agent>
        </dc:creator>
        <dc:subject>
          <rdf:Bag>
            <rdf:li>blue</rdf:li>
            <rdf:li>blue</rdf:li>
            <rdf:li>building</rdf:li>
            <rdf:li>building</rdf:li>
            <rdf:li>city</rdf:li>
            <rdf:li>city</rdf:li>
            <rdf:li>cityscape</rdf:li>
            <rdf:li>cityscape</rdf:li>
            <rdf:li>clip art</rdf:li>
            <rdf:li>clipart</rdf:li>
            <rdf:li>image</rdf:li>
            <rdf:li>landscape</rdf:li>
            <rdf:li>landscape</rdf:li>
            <rdf:li>media</rdf:li>
            <rdf:li>png</rdf:li>
            <rdf:li>public domain</rdf:li>
            <rdf:li>remix</rdf:li>
            <rdf:li>scene</rdf:li>
            <rdf:li>scene</rdf:li>
            <rdf:li>svg</rdf:li>
          </rdf:Bag>
        </dc:subject>
      </cc:Work>
      <cc:License rdf:about="http://creativecommons.org/licenses/publicdomain/">
        <cc:permits rdf:resource="http://creativecommons.org/ns#Reproduction"/>
        <cc:permits rdf:resource="http://creativecommons.org/ns#Distribution"/>
        <cc:permits rdf:resource="http://creativecommons.org/ns#DerivativeWorks"/>
      </cc:License>
    </rdf:RDF>
  </metadata>
</svg>
